<svg id="Ñëîé_1" xmlns="http://www.w3.org/2000/svg" xmlns:xlink="http://www.w3.org/1999/xlink" viewBox="0 0 1375 810" style="enable-background:new 0 0 1375 810"><style>.st0{fill:#c0dbf7}.st1{fill:#dfedfb}.st2{fill:#fff}.st3{fill:#a0c9f3}</style><g><g><path class="st0" d="M499 145h10v10H499z"/><path class="st1" d="M499 135h10v10H499z"/><path class="st2" d="M499 125h10v10H499z"/><path class="st3" d="M489 155h10v10H489z"/><path class="st0" d="M489 145h10v10H489z"/><path class="st1" d="M489 135h10v10H489z"/><path class="st1" d="M489 125h10v10H489z"/><path class="st2" d="M489 115h10v10H489z"/><path class="st2" d="M489 105h10v10H489z"/><path class="st3" d="M479 155h10v10H479z"/><path class="st0" d="M479 145h10v10H479z"/><path class="st0" d="M479 135h10v10H479z"/><path class="st1" d="M479 125h10v10H479z"/><path class="st1" d="M479 115h10v10H479z"/><path class="st2" d="M479 105h10v10H479z"/><path class="st2" d="M479 95h10v10H479z"/><path class="st3" d="M469 155h10v10H469z"/><path class="st3" d="M469 145h10v10H469z"/><path class="st0" d="M469 135h10v10H469z"/><path class="st0" d="M469 125h10v10H469z"/><path class="st1" d="M469 115h10v10H469z"/><path class="st1" d="M469 105h10v10H469z"/><path class="st2" d="M469 95h10v10H469z"/><path class="st0" d="M459 165h10v10H459z"/><path class="st1" d="M459 155h10v10H459z"/><path class="st2" d="M459 145h10v10H459z"/><path class="st2" d="M459 135h10v10H459z"/><path class="st0" d="M459 125h10v10H459z"/><path class="st0" d="M459 115h10v10H459z"/><path class="st1" d="M459 105h10v10H459z"/><path class="st2" d="M459 95h10v10H459z"/><path class="st0" d="M449 165h10v10H449z"/><path class="st1" d="M449 155h10v10H449z"/><path class="st1" d="M449 145h10v10H449z"/><path class="st1" d="M449 135h10v10H449z"/><path class="st2" d="M449 125h10v10H449z"/><path class="st2" d="M449 115h10v10H449z"/><path class="st1" d="M449 105h10v10H449z"/><path class="st0" d="M439 165h10v10H439z"/><path class="st0" d="M439 155h10v10H439z"/><path class="st1" d="M439 145h10v10H439z"/><path class="st1" d="M439 135h10v10H439z"/><path class="st1" d="M439 125h10v10H439z"/><path class="st2" d="M439 115h10v10H439z"/><path class="st2" d="M439 105h10v10H439z"/><path class="st2" d="M439 95h10v10H439z"/><path class="st3" d="M429 165h10v10H429z"/><path class="st0" d="M429 155h10v10H429z"/><path class="st0" d="M429 145h10v10H429z"/><path class="st1" d="M429 135h10v10H429z"/><path class="st1" d="M429 125h10v10H429z"/><path class="st1" d="M429 115h10v10H429z"/><path class="st2" d="M429 105h10v10H429z"/><path class="st2" d="M429 95h10v10H429z"/><path class="st2" d="M429 85h10v10H429z"/><path class="st3" d="M419 165h10v10H419z"/><path class="st0" d="M419 155h10v10H419z"/><path class="st0" d="M419 145h10v10H419z"/><path class="st0" d="M419 135h10v10H419z"/><path class="st0" d="M419 125h10v10H419z"/><path class="st1" d="M419 115h10v10H419z"/><path class="st1" d="M419 105h10v10H419z"/><path class="st2" d="M419 95h10v10H419z"/><path class="st2" d="M419 85h10v10H419z"/><path class="st2" d="M419 75h10v10H419z"/><path class="st3" d="M409 165h10v10H409z"/><path class="st0" d="M409 155h10v10H409z"/><path class="st0" d="M409 145h10v10H409z"/><path class="st0" d="M409 135h10v10H409z"/><path class="st0" d="M409 125h10v10H409z"/><path class="st0" d="M409 115h10v10H409z"/><path class="st1" d="M409 105h10v10H409z"/><path class="st1" d="M409 95h10v10H409z"/><path class="st2" d="M409 85h10v10H409z"/><path class="st2" d="M409 75h10v10H409z"/><path class="st3" d="M399 165h10v10H399z"/><path class="st3" d="M399 155h10v10H399z"/><path class="st0" d="M399 145h10v10H399z"/><path class="st0" d="M399 135h10v10H399z"/><path class="st0" d="M399 125h10v10H399z"/><path class="st0" d="M399 115h10v10H399z"/><path class="st1" d="M399 105h10v10H399z"/><path class="st1" d="M399 95h10v10H399z"/><path class="st1" d="M399 85h10v10H399z"/><path class="st2" d="M399 75h10v10H399z"/><path class="st3" d="M389 165h10v10H389z"/><path class="st3" d="M389 155h10v10H389z"/><path class="st3" d="M389 145h10v10H389z"/><path class="st0" d="M389 135h10v10H389z"/><path class="st0" d="M389 125h10v10H389z"/><path class="st0" d="M389 115h10v10H389z"/><path class="st0" d="M389 105h10v10H389z"/><path class="st1" d="M389 95h10v10H389z"/><path class="st1" d="M389 85h10v10H389z"/><path class="st2" d="M389 75h10v10H389z"/><path class="st3" d="M379 165h10v10H379z"/><path class="st3" d="M379 155h10v10H379z"/><path class="st3" d="M379 145h10v10H379z"/><path class="st3" d="M379 135h10v10H379z"/><path class="st0" d="M379 125h10v10H379z"/><path class="st0" d="M379 115h10v10H379z"/><path class="st0" d="M379 105h10v10H379z"/><path class="st1" d="M379 95h10v10H379z"/><path class="st1" d="M379 85h10v10H379z"/><path class="st2" d="M379 75h10v10H379z"/><path class="st3" d="M369 155h10v10H369z"/><path class="st3" d="M369 145h10v10H369z"/><path class="st3" d="M369 135h10v10H369z"/><path class="st3" d="M369 125h10v10H369z"/><path class="st0" d="M369 115h10v10H369z"/><path class="st0" d="M369 105h10v10H369z"/><path class="st1" d="M369 95h10v10H369z"/><path class="st2" d="M369 85h10v10H369z"/><path class="st2" d="M369 75h10v10H369z"/><path class="st3" d="M359 155h10v10H359z"/><path class="st3" d="M359 145h10v10H359z"/><path class="st3" d="M359 135h10v10H359z"/><path class="st3" d="M359 125h10v10H359z"/><path class="st0" d="M359 115h10v10H359z"/><path class="st1" d="M359 105h10v10H359z"/><path class="st1" d="M359 95h10v10H359z"/><path class="st2" d="M359 85h10v10H359z"/><path class="st3" d="M349 155h10v10H349z"/><path class="st3" d="M349 145h10v10H349z"/><path class="st3" d="M349 135h10v10H349z"/><path class="st0" d="M349 125h10v10H349z"/><path class="st1" d="M349 115h10v10H349z"/><path class="st1" d="M349 105h10v10H349z"/><path class="st2" d="M349 95h10v10H349z"/><path class="st1" d="M339 155h10v10H339z"/><path class="st3" d="M339 145h10v10H339z"/><path class="st0" d="M339 135h10v10H339z"/><path class="st0" d="M339 125h10v10H339z"/><path class="st1" d="M339 115h10v10H339z"/><path class="st2" d="M339 105h10v10H339z"/><path class="st0" d="M329 165h10v10H329z"/><path class="st1" d="M329 155h10v10H329z"/><path class="st1" d="M329 145h10v10H329z"/><path class="st1" d="M329 135h10v10H329z"/><path class="st1" d="M329 125h10v10H329z"/><path class="st0" d="M329 115h10v10H329z"/><path class="st0" d="M319 165h10v10H319z"/><path class="st0" d="M319 155h10v10H319z"/><path class="st1" d="M319 145h10v10H319z"/><path class="st1" d="M319 135h10v10H319z"/><path class="st2" d="M319 125h10v10H319z"/><path class="st2" d="M319 115h10v10H319z"/><path class="st2" d="M319 105h10v10H319z"/><path class="st3" d="M309 165h10v10H309z"/><path class="st0" d="M309 155h10v10H309z"/><path class="st1" d="M309 145h10v10H309z"/><path class="st1" d="M309 135h10v10H309z"/><path class="st1" d="M309 125h10v10H309z"/><path class="st2" d="M309 115h10v10H309z"/><path class="st2" d="M309 105h10v10H309z"/><path class="st3" d="M299 165h10v10H299z"/><path class="st0" d="M299 155h10v10H299z"/><path class="st0" d="M299 145h10v10H299z"/><path class="st1" d="M299 135h10v10H299z"/><path class="st1" d="M299 125h10v10H299z"/><path class="st1" d="M299 115h10v10H299z"/><path class="st2" d="M299 105h10v10H299z"/><path class="st2" d="M299 95h10v10H299z"/><path class="st3" d="M289 165h10v10H289z"/><path class="st0" d="M289 155h10v10H289z"/><path class="st0" d="M289 145h10v10H289z"/><path class="st0" d="M289 135h10v10H289z"/><path class="st1" d="M289 125h10v10H289z"/><path class="st1" d="M289 115h10v10H289z"/><path class="st1" d="M289 105h10v10H289z"/><path class="st2" d="M289 95h10v10H289z"/><path class="st3" d="M279 165h10v10H279z"/><path class="st3" d="M279 155h10v10H279z"/><path class="st0" d="M279 145h10v10H279z"/><path class="st0" d="M279 135h10v10H279z"/><path class="st0" d="M279 125h10v10H279z"/><path class="st1" d="M279 115h10v10H279z"/><path class="st1" d="M279 105h10v10H279z"/><path class="st2" d="M279 95h10v10H279z"/><path class="st3" d="M269 155h10v10H269z"/><path class="st3" d="M269 145h10v10H269z"/><path class="st0" d="M269 135h10v10H269z"/><path class="st1" d="M269 125h10v10H269z"/><path class="st1" d="M269 115h10v10H269z"/><path class="st2" d="M269 105h10v10H269z"/><path class="st3" d="M259 155h10v10H259z"/><path class="st0" d="M259 145h10v10H259z"/><path class="st1" d="M259 135h10v10H259z"/><path class="st2" d="M259 125h10v10H259z"/><path class="st2" d="M259 115h10v10H259z"/><path class="st1" d="M249 135h10v10H249z"/><path class="st2" d="M249 125h10v10H249z"/></g><g><path class="st2" d="M706.5 298.3h10v10h-10z"/><path class="st2" d="M706.5 288.3h10v10h-10z"/><path class="st0" d="M696.5 308.3h10v10h-10z"/><path class="st1" d="M696.5 298.3h10v10h-10z"/><path class="st2" d="M696.5 288.3h10v10h-10z"/><path class="st2" d="M696.5 278.3h10v10h-10z"/><path class="st0" d="M686.5 308.3h10v10h-10z"/><path class="st0" d="M686.5 298.3h10v10h-10z"/><path class="st1" d="M686.5 288.3h10v10h-10z"/><path class="st2" d="M686.5 278.3h10v10h-10z"/><path class="st2" d="M686.5 268.3h10v10h-10z"/><path class="st3" d="M676.5 308.3h10v10h-10z"/><path class="st0" d="M676.5 298.3h10v10h-10z"/><path class="st1" d="M676.5 288.3h10v10h-10z"/><path class="st1" d="M676.5 278.3h10v10h-10z"/><path class="st2" d="M676.5 268.3h10v10h-10z"/><path class="st2" d="M676.5 258.3h10v10h-10z"/><path class="st3" d="M666.5 308.3h10v10h-10z"/><path class="st0" d="M666.5 298.3h10v10h-10z"/><path class="st0" d="M666.5 288.3h10v10h-10z"/><path class="st1" d="M666.5 278.3h10v10h-10z"/><path class="st1" d="M666.5 268.3h10v10h-10z"/><path class="st2" d="M666.5 258.3h10v10h-10z"/><path class="st3" d="M656.5 308.3h10v10h-10z"/><path class="st3" d="M656.5 298.3h10v10h-10z"/><path class="st0" d="M656.5 288.3h10v10h-10z"/><path class="st0" d="M656.5 278.3h10v10h-10z"/><path class="st1" d="M656.5 268.3h10v10h-10z"/><path class="st2" d="M656.5 258.3h10v10h-10z"/><path class="st1" d="M646.5 308.3h10v10h-10z"/><path class="st3" d="M646.5 298.3h10v10h-10z"/><path class="st3" d="M646.5 288.3h10v10h-10z"/><path class="st0" d="M646.5 278.3h10v10h-10z"/><path class="st1" d="M646.5 268.3h10v10h-10z"/><path class="st2" d="M646.5 258.3h10v10h-10z"/><path class="st1" d="M636.5 308.3h10v10h-10z"/><path class="st2" d="M636.5 298.3h10v10h-10z"/><path class="st2" d="M636.5 288.3h10v10h-10z"/><path class="st0" d="M636.5 278.3h10v10h-10z"/><path class="st2" d="M636.5 268.3h10v10h-10z"/><path class="st0" d="M626.5 308.3h10v10h-10z"/><path class="st1" d="M626.5 298.3h10v10h-10z"/><path class="st2" d="M626.5 288.3h10v10h-10z"/><path class="st2" d="M626.5 278.3h10v10h-10z"/><path class="st0" d="M616.5 308.3h10v10h-10z"/><path class="st0" d="M616.5 298.3h10v10h-10z"/><path class="st1" d="M616.5 288.3h10v10h-10z"/><path class="st2" d="M616.5 278.3h10v10h-10z"/><path class="st2" d="M616.5 268.3h10v10h-10z"/><path class="st3" d="M606.5 308.3h10v10h-10z"/><path class="st0" d="M606.5 298.3h10v10h-10z"/><path class="st1" d="M606.5 288.3h10v10h-10z"/><path class="st2" d="M606.5 278.3h10v10h-10z"/><path class="st2" d="M606.5 268.3h10v10h-10z"/><path class="st3" d="M596.5 308.3h10v10h-10z"/><path class="st0" d="M596.5 298.3h10v10h-10z"/><path class="st1" d="M596.5 288.3h10v10h-10z"/><path class="st2" d="M596.5 278.3h10v10h-10z"/><path class="st1" d="M586.5 298.3h10v10h-10z"/><path class="st2" d="M586.5 288.3h10v10h-10z"/></g><g><path class="st2" d="M1289 298.3h10v10h-10z"/><path class="st2" d="M1289 288.3h10v10h-10z"/><path class="st2" d="M1289 278.3h10v10h-10z"/><path class="st0" d="M1279 308.3h10v10h-10z"/><path class="st1" d="M1279 298.3h10v10h-10z"/><path class="st1" d="M1279 288.3h10v10h-10z"/><path class="st2" d="M1279 278.3h10v10h-10z"/><path class="st2" d="M1279 268.3h10v10h-10z"/><path class="st3" d="M1269 308.3h10v10h-10z"/><path class="st0" d="M1269 298.3h10v10h-10z"/><path class="st1" d="M1269 288.3h10v10h-10z"/><path class="st1" d="M1269 278.3h10v10h-10z"/><path class="st2" d="M1269 268.3h10v10h-10z"/><path class="st2" d="M1269 258.3h10v10h-10z"/><path class="st3" d="M1259 308.3h10v10h-10z"/><path class="st0" d="M1259 298.3h10v10h-10z"/><path class="st0" d="M1259 288.3h10v10h-10z"/><path class="st1" d="M1259 278.3h10v10h-10z"/><path class="st1" d="M1259 268.3h10v10h-10z"/><path class="st1" d="M1259 258.3h10v10h-10z"/><path class="st2" d="M1259 248.3h10v10h-10z"/><path class="st3" d="M1249 308.3h10v10h-10z"/><path class="st3" d="M1249 298.3h10v10h-10z"/><path class="st0" d="M1249 288.3h10v10h-10z"/><path class="st0" d="M1249 278.3h10v10h-10z"/><path class="st1" d="M1249 268.3h10v10h-10z"/><path class="st1" d="M1249 258.3h10v10h-10z"/><path class="st2" d="M1249 248.3h10v10h-10z"/><path class="st2" d="M1249 238.3h10v10h-10z"/><path class="st0" d="M1239 308.3h10v10h-10z"/><path class="st3" d="M1239 298.3h10v10h-10z"/><path class="st3" d="M1239 288.3h10v10h-10z"/><path class="st0" d="M1239 278.3h10v10h-10z"/><path class="st0" d="M1239 268.3h10v10h-10z"/><path class="st1" d="M1239 258.3h10v10h-10z"/><path class="st1" d="M1239 248.3h10v10h-10z"/><path class="st2" d="M1239 238.3h10v10h-10z"/><path class="st0" d="M1229 308.3h10v10h-10z"/><path class="st2" d="M1229 298.3h10v10h-10z"/><path class="st3" d="M1229 288.3h10v10h-10z"/><path class="st0" d="M1229 278.3h10v10h-10z"/><path class="st0" d="M1229 268.3h10v10h-10z"/><path class="st0" d="M1229 258.3h10v10h-10z"/><path class="st1" d="M1229 248.3h10v10h-10z"/><path class="st2" d="M1229 238.3h10v10h-10z"/><path class="st0" d="M1219 308.3h10v10h-10z"/><path class="st1" d="M1219 298.3h10v10h-10z"/><path class="st2" d="M1219 288.3h10v10h-10z"/><path class="st3" d="M1219 278.3h10v10h-10z"/><path class="st0" d="M1219 268.3h10v10h-10z"/><path class="st1" d="M1219 258.3h10v10h-10z"/><path class="st2" d="M1219 248.3h10v10h-10z"/><path class="st2" d="M1219 238.3h10v10h-10z"/><path class="st0" d="M1209 308.3h10v10h-10z"/><path class="st0" d="M1209 298.3h10v10h-10z"/><path class="st1" d="M1209 288.3h10v10h-10z"/><path class="st2" d="M1209 278.3h10v10h-10z"/><path class="st1" d="M1209 268.3h10v10h-10z"/><path class="st2" d="M1209 258.3h10v10h-10z"/><path class="st2" d="M1209 248.3h10v10h-10z"/><path class="st3" d="M1199 308.3h10v10h-10z"/><path class="st0" d="M1199 298.3h10v10h-10z"/><path class="st1" d="M1199 288.3h10v10h-10z"/><path class="st2" d="M1199 278.3h10v10h-10z"/><path class="st2" d="M1199 268.3h10v10h-10z"/><path class="st2" d="M1199 258.3h10v10h-10z"/><path class="st0" d="M1189 308.3h10v10h-10z"/><path class="st0" d="M1189 298.3h10v10h-10z"/><path class="st1" d="M1189 288.3h10v10h-10z"/><path class="st2" d="M1189 278.3h10v10h-10z"/><path class="st2" d="M1189 268.3h10v10h-10z"/><path class="st0" d="M1179 308.3h10v10h-10z"/><path class="st1" d="M1179 298.3h10v10h-10z"/><path class="st2" d="M1179 288.3h10v10h-10z"/><path class="st2" d="M1179 278.3h10v10h-10z"/><path class="st0" d="M1169 308.3h10v10h-10z"/><path class="st3" d="M1169 298.3h10v10h-10z"/><path class="st1" d="M1169 288.3h10v10h-10z"/><path class="st2" d="M1169 278.3h10v10h-10z"/><path class="st2" d="M1169 268.3h10v10h-10z"/><path class="st3" d="M1159 308.3h10v10h-10z"/><path class="st3" d="M1159 298.3h10v10h-10z"/><path class="st0" d="M1159 288.3h10v10h-10z"/><path class="st1" d="M1159 278.3h10v10h-10z"/><path class="st2" d="M1159 268.3h10v10h-10z"/><path class="st2" d="M1159 258.3h10v10h-10z"/><path class="st3" d="M1149 308.3h10v10h-10z"/><path class="st0" d="M1149 298.3h10v10h-10z"/><path class="st0" d="M1149 288.3h10v10h-10z"/><path class="st1" d="M1149 278.3h10v10h-10z"/><path class="st2" d="M1149 268.3h10v10h-10z"/><path class="st2" d="M1149 258.3h10v10h-10z"/><path class="st0" d="M1139 308.3h10v10h-10z"/><path class="st0" d="M1139 298.3h10v10h-10z"/><path class="st1" d="M1139 288.3h10v10h-10z"/><path class="st1" d="M1139 278.3h10v10h-10z"/><path class="st2" d="M1139 268.3h10v10h-10z"/><path class="st0" d="M1129 308.3h10v10h-10z"/><path class="st1" d="M1129 298.3h10v10h-10z"/><path class="st1" d="M1129 288.3h10v10h-10z"/><path class="st2" d="M1129 278.3h10v10h-10z"/><path class="st2" d="M1119 298.3h10v10h-10z"/><path class="st2" d="M1119 288.3h10v10h-10z"/></g><g><path class="st2" d="M246 298.3h10v10H246z"/><path class="st2" d="M246 288.3h10v10H246z"/><path class="st2" d="M246 278.3h10v10H246z"/><path class="st0" d="M236 308.3h10v10H236z"/><path class="st1" d="M236 298.3h10v10H236z"/><path class="st1" d="M236 288.3h10v10H236z"/><path class="st2" d="M236 278.3h10v10H236z"/><path class="st2" d="M236 268.3h10v10H236z"/><path class="st3" d="M226 308.3h10v10H226z"/><path class="st0" d="M226 298.3h10v10H226z"/><path class="st1" d="M226 288.3h10v10H226z"/><path class="st1" d="M226 278.3h10v10H226z"/><path class="st2" d="M226 268.3h10v10H226z"/><path class="st2" d="M226 258.3h10v10H226z"/><path class="st3" d="M216 308.3h10v10H216z"/><path class="st0" d="M216 298.3h10v10H216z"/><path class="st0" d="M216 288.3h10v10H216z"/><path class="st1" d="M216 278.3h10v10H216z"/><path class="st1" d="M216 268.3h10v10H216z"/><path class="st1" d="M216 258.3h10v10H216z"/><path class="st2" d="M216 248.3h10v10H216z"/><path class="st3" d="M206 308.3h10v10H206z"/><path class="st3" d="M206 298.3h10v10H206z"/><path class="st0" d="M206 288.3h10v10H206z"/><path class="st0" d="M206 278.3h10v10H206z"/><path class="st1" d="M206 268.3h10v10H206z"/><path class="st1" d="M206 258.3h10v10H206z"/><path class="st2" d="M206 248.3h10v10H206z"/><path class="st2" d="M206 238.3h10v10H206z"/><path class="st0" d="M196 308.3h10v10H196z"/><path class="st3" d="M196 298.3h10v10H196z"/><path class="st3" d="M196 288.3h10v10H196z"/><path class="st0" d="M196 278.3h10v10H196z"/><path class="st0" d="M196 268.3h10v10H196z"/><path class="st1" d="M196 258.3h10v10H196z"/><path class="st1" d="M196 248.3h10v10H196z"/><path class="st2" d="M196 238.3h10v10H196z"/><path class="st0" d="M186 308.3h10v10H186z"/><path class="st2" d="M186 298.3h10v10H186z"/><path class="st3" d="M186 288.3h10v10H186z"/><path class="st0" d="M186 278.3h10v10H186z"/><path class="st0" d="M186 268.3h10v10H186z"/><path class="st0" d="M186 258.3h10v10H186z"/><path class="st1" d="M186 248.3h10v10H186z"/><path class="st2" d="M186 238.3h10v10H186z"/><path class="st0" d="M176 308.3h10v10H176z"/><path class="st1" d="M176 298.3h10v10H176z"/><path class="st2" d="M176 288.3h10v10H176z"/><path class="st3" d="M176 278.3h10v10H176z"/><path class="st0" d="M176 268.3h10v10H176z"/><path class="st1" d="M176 258.3h10v10H176z"/><path class="st2" d="M176 248.3h10v10H176z"/><path class="st2" d="M176 238.3h10v10H176z"/><path class="st0" d="M166 308.3h10v10H166z"/><path class="st0" d="M166 298.3h10v10H166z"/><path class="st1" d="M166 288.3h10v10H166z"/><path class="st2" d="M166 278.3h10v10H166z"/><path class="st1" d="M166 268.3h10v10H166z"/><path class="st2" d="M166 258.3h10v10H166z"/><path class="st2" d="M166 248.3h10v10H166z"/><path class="st3" d="M156 308.3h10v10H156z"/><path class="st0" d="M156 298.3h10v10H156z"/><path class="st1" d="M156 288.3h10v10H156z"/><path class="st2" d="M156 278.3h10v10H156z"/><path class="st2" d="M156 268.3h10v10H156z"/><path class="st2" d="M156 258.3h10v10H156z"/><path class="st0" d="M146 308.3h10v10H146z"/><path class="st0" d="M146 298.3h10v10H146z"/><path class="st1" d="M146 288.3h10v10H146z"/><path class="st2" d="M146 278.3h10v10H146z"/><path class="st2" d="M146 268.3h10v10H146z"/><path class="st0" d="M136 308.3h10v10H136z"/><path class="st1" d="M136 298.3h10v10H136z"/><path class="st2" d="M136 288.3h10v10H136z"/><path class="st2" d="M136 278.3h10v10H136z"/><path class="st0" d="M126 308.3h10v10H126z"/><path class="st3" d="M126 298.3h10v10H126z"/><path class="st1" d="M126 288.3h10v10H126z"/><path class="st2" d="M126 278.3h10v10H126z"/><path class="st2" d="M126 268.3h10v10H126z"/><path class="st3" d="M116 308.3h10v10H116z"/><path class="st3" d="M116 298.3h10v10H116z"/><path class="st0" d="M116 288.3h10v10H116z"/><path class="st1" d="M116 278.3h10v10H116z"/><path class="st2" d="M116 268.3h10v10H116z"/><path class="st2" d="M116 258.3h10v10H116z"/><path class="st3" d="M106 308.3h10v10H106z"/><path class="st0" d="M106 298.3h10v10H106z"/><path class="st0" d="M106 288.3h10v10H106z"/><path class="st1" d="M106 278.3h10v10H106z"/><path class="st2" d="M106 268.3h10v10H106z"/><path class="st2" d="M106 258.3h10v10H106z"/><path class="st0" d="M96 308.3h10v10H96z"/><path class="st0" d="M96 298.3h10v10H96z"/><path class="st1" d="M96 288.3h10v10H96z"/><path class="st1" d="M96 278.3h10v10H96z"/><path class="st2" d="M96 268.3h10v10H96z"/><path class="st0" d="M86 308.3h10v10H86z"/><path class="st1" d="M86 298.3h10v10H86z"/><path class="st1" d="M86 288.3h10v10H86z"/><path class="st2" d="M86 278.3h10v10H86z"/><path class="st2" d="M76 298.3h10v10H76z"/><path class="st2" d="M76 288.3h10v10H76z"/></g><g><path class="st2" d="M1114 135h10v10h-10z"/><path class="st2" d="M1114 125h10v10h-10z"/><path class="st2" d="M1114 115h10v10h-10z"/><path class="st2" d="M1114 105h10v10h-10z"/><path class="st2" d="M1104 145h10v10h-10z"/><path class="st1" d="M1104 135h10v10h-10z"/><path class="st1" d="M1104 125h10v10h-10z"/><path class="st1" d="M1104 115h10v10h-10z"/><path class="st2" d="M1104 105h10v10h-10z"/><path class="st2" d="M1104 95h10v10h-10z"/><path class="st1" d="M1094 145h10v10h-10z"/><path class="st0" d="M1094 135h10v10h-10z"/><path class="st1" d="M1094 125h10v10h-10z"/><path class="st1" d="M1094 115h10v10h-10z"/><path class="st1" d="M1094 105h10v10h-10z"/><path class="st2" d="M1094 95h10v10h-10z"/><path class="st2" d="M1094 85h10v10h-10z"/><path class="st1" d="M1084 145h10v10h-10z"/><path class="st2" d="M1084 135h10v10h-10z"/><path class="st0" d="M1084 125h10v10h-10z"/><path class="st0" d="M1084 115h10v10h-10z"/><path class="st1" d="M1084 105h10v10h-10z"/><path class="st2" d="M1084 95h10v10h-10z"/><path class="st2" d="M1084 85h10v10h-10z"/><path class="st0" d="M1074 155h10v10h-10z"/><path class="st1" d="M1074 145h10v10h-10z"/><path class="st2" d="M1074 135h10v10h-10z"/><path class="st2" d="M1074 125h10v10h-10z"/><path class="st2" d="M1074 115h10v10h-10z"/><path class="st1" d="M1074 105h10v10h-10z"/><path class="st1" d="M1074 95h10v10h-10z"/><path class="st2" d="M1074 85h10v10h-10z"/><path class="st3" d="M1064 165h10v10h-10z"/><path class="st0" d="M1064 155h10v10h-10z"/><path class="st1" d="M1064 145h10v10h-10z"/><path class="st1" d="M1064 135h10v10h-10z"/><path class="st2" d="M1064 125h10v10h-10z"/><path class="st2" d="M1064 115h10v10h-10z"/><path class="st2" d="M1064 105h10v10h-10z"/><path class="st1" d="M1064 95h10v10h-10z"/><path class="st2" d="M1064 85h10v10h-10z"/><path class="st3" d="M1054 165h10v10h-10z"/><path class="st0" d="M1054 155h10v10h-10z"/><path class="st0" d="M1054 145h10v10h-10z"/><path class="st1" d="M1054 135h10v10h-10z"/><path class="st1" d="M1054 125h10v10h-10z"/><path class="st1" d="M1054 115h10v10h-10z"/><path class="st2" d="M1054 105h10v10h-10z"/><path class="st2" d="M1054 95h10v10h-10z"/><path class="st2" d="M1054 85h10v10h-10z"/><path class="st3" d="M1044 165h10v10h-10z"/><path class="st3" d="M1044 155h10v10h-10z"/><path class="st0" d="M1044 145h10v10h-10z"/><path class="st0" d="M1044 135h10v10h-10z"/><path class="st1" d="M1044 125h10v10h-10z"/><path class="st1" d="M1044 115h10v10h-10z"/><path class="st2" d="M1044 105h10v10h-10z"/><path class="st2" d="M1044 95h10v10h-10z"/><path class="st2" d="M1044 85h10v10h-10z"/><path class="st3" d="M1034 165h10v10h-10z"/><path class="st3" d="M1034 155h10v10h-10z"/><path class="st0" d="M1034 145h10v10h-10z"/><path class="st0" d="M1034 135h10v10h-10z"/><path class="st0" d="M1034 125h10v10h-10z"/><path class="st1" d="M1034 115h10v10h-10z"/><path class="st1" d="M1034 105h10v10h-10z"/><path class="st2" d="M1034 95h10v10h-10z"/><path class="st2" d="M1034 85h10v10h-10z"/><path class="st2" d="M1034 75h10v10h-10z"/><path class="st3" d="M1024 165h10v10h-10z"/><path class="st3" d="M1024 155h10v10h-10z"/><path class="st3" d="M1024 145h10v10h-10z"/><path class="st0" d="M1024 135h10v10h-10z"/><path class="st0" d="M1024 125h10v10h-10z"/><path class="st1" d="M1024 115h10v10h-10z"/><path class="st1" d="M1024 105h10v10h-10z"/><path class="st2" d="M1024 95h10v10h-10z"/><path class="st2" d="M1024 85h10v10h-10z"/><path class="st2" d="M1024 75h10v10h-10z"/><path class="st2" d="M1024 65h10v10h-10z"/><path class="st3" d="M1014 165h10v10h-10z"/><path class="st3" d="M1014 155h10v10h-10z"/><path class="st3" d="M1014 145h10v10h-10z"/><path class="st0" d="M1014 135h10v10h-10z"/><path class="st0" d="M1014 125h10v10h-10z"/><path class="st0" d="M1014 115h10v10h-10z"/><path class="st1" d="M1014 105h10v10h-10z"/><path class="st1" d="M1014 95h10v10h-10z"/><path class="st2" d="M1014 85h10v10h-10z"/><path class="st2" d="M1014 75h10v10h-10z"/><path class="st2" d="M1014 65h10v10h-10z"/><path class="st3" d="M1004 165h10v10h-10z"/><path class="st3" d="M1004 155h10v10h-10z"/><path class="st3" d="M1004 145h10v10h-10z"/><path class="st3" d="M1004 135h10v10h-10z"/><path class="st0" d="M1004 125h10v10h-10z"/><path class="st0" d="M1004 115h10v10h-10z"/><path class="st1" d="M1004 105h10v10h-10z"/><path class="st1" d="M1004 95h10v10h-10z"/><path class="st2" d="M1004 85h10v10h-10z"/><path class="st2" d="M1004 75h10v10h-10z"/><path class="st2" d="M1004 65h10v10h-10z"/><path class="st2" d="M1004 55h10v10h-10z"/><path class="st3" d="M994 165h10v10H994z"/><path class="st3" d="M994 155h10v10H994z"/><path class="st3" d="M994 145h10v10H994z"/><path class="st3" d="M994 135h10v10H994z"/><path class="st0" d="M994 125h10v10H994z"/><path class="st0" d="M994 115h10v10H994z"/><path class="st1" d="M994 105h10v10H994z"/><path class="st1" d="M994 95h10v10H994z"/><path class="st2" d="M994 85h10v10H994z"/><path class="st1" d="M994 75h10v10H994z"/><path class="st2" d="M994 65h10v10H994z"/><path class="st2" d="M994 55h10v10H994z"/><path class="st3" d="M984 155h10v10H984z"/><path class="st3" d="M984 145h10v10H984z"/><path class="st0" d="M984 135h10v10H984z"/><path class="st0" d="M984 125h10v10H984z"/><path class="st1" d="M984 115h10v10H984z"/><path class="st1" d="M984 105h10v10H984z"/><path class="st2" d="M984 95h10v10H984z"/><path class="st1" d="M984 85h10v10H984z"/><path class="st1" d="M984 75h10v10H984z"/><path class="st2" d="M984 65h10v10H984z"/><path class="st2" d="M984 55h10v10H984z"/><path class="st3" d="M974 155h10v10H974z"/><path class="st3" d="M974 145h10v10H974z"/><path class="st0" d="M974 135h10v10H974z"/><path class="st0" d="M974 125h10v10H974z"/><path class="st1" d="M974 115h10v10H974z"/><path class="st2" d="M974 105h10v10H974z"/><path class="st1" d="M974 95h10v10H974z"/><path class="st1" d="M974 85h10v10H974z"/><path class="st1" d="M974 75h10v10H974z"/><path class="st1" d="M974 65h10v10H974z"/><path class="st2" d="M974 55h10v10H974z"/><path class="st2" d="M974 45h10v10H974z"/><path class="st3" d="M964 155h10v10H964z"/><path class="st0" d="M964 145h10v10H964z"/><path class="st0" d="M964 135h10v10H964z"/><path class="st1" d="M964 125h10v10H964z"/><path class="st1" d="M964 115h10v10H964z"/><path class="st1" d="M964 105h10v10H964z"/><path class="st0" d="M964 95h10v10H964z"/><path class="st1" d="M964 85h10v10H964z"/><path class="st1" d="M964 75h10v10H964z"/><path class="st1" d="M964 65h10v10H964z"/><path class="st2" d="M964 55h10v10H964z"/><path class="st2" d="M964 45h10v10H964z"/><path class="st0" d="M954 155h10v10H954z"/><path class="st0" d="M954 145h10v10H954z"/><path class="st1" d="M954 135h10v10H954z"/><path class="st2" d="M954 125h10v10H954z"/><path class="st1" d="M954 115h10v10H954z"/><path class="st0" d="M954 105h10v10H954z"/><path class="st0" d="M954 95h10v10H954z"/><path class="st1" d="M954 85h10v10H954z"/><path class="st1" d="M954 75h10v10H954z"/><path class="st1" d="M954 65h10v10H954z"/><path class="st2" d="M954 55h10v10H954z"/><path class="st2" d="M954 45h10v10H954z"/><path class="st0" d="M944 165h10v10H944z"/><path class="st0" d="M944 155h10v10H944z"/><path class="st1" d="M944 145h10v10H944z"/><path class="st1" d="M944 135h10v10H944z"/><path class="st2" d="M944 125h10v10H944z"/><path class="st2" d="M944 115h10v10H944z"/><path class="st2" d="M944 105h10v10H944z"/><path class="st0" d="M944 95h10v10H944z"/><path class="st0" d="M944 85h10v10H944z"/><path class="st1" d="M944 75h10v10H944z"/><path class="st1" d="M944 65h10v10H944z"/><path class="st1" d="M944 55h10v10H944z"/><path class="st2" d="M944 45h10v10H944z"/><path class="st3" d="M934 165h10v10H934z"/><path class="st0" d="M934 155h10v10H934z"/><path class="st0" d="M934 145h10v10H934z"/><path class="st1" d="M934 135h10v10H934z"/><path class="st1" d="M934 125h10v10H934z"/><path class="st2" d="M934 115h10v10H934z"/><path class="st2" d="M934 105h10v10H934z"/><path class="st2" d="M934 95h10v10H934z"/><path class="st0" d="M934 85h10v10H934z"/><path class="st1" d="M934 75h10v10H934z"/><path class="st1" d="M934 65h10v10H934z"/><path class="st1" d="M934 55h10v10H934z"/><path class="st2" d="M934 45h10v10H934z"/><path class="st3" d="M924 165h10v10H924z"/><path class="st0" d="M924 155h10v10H924z"/><path class="st0" d="M924 145h10v10H924z"/><path class="st1" d="M924 135h10v10H924z"/><path class="st1" d="M924 125h10v10H924z"/><path class="st1" d="M924 115h10v10H924z"/><path class="st2" d="M924 105h10v10H924z"/><path class="st2" d="M924 95h10v10H924z"/><path class="st2" d="M924 85h10v10H924z"/><path class="st1" d="M924 75h10v10H924z"/><path class="st1" d="M924 65h10v10H924z"/><path class="st2" d="M924 55h10v10H924z"/><path class="st2" d="M924 45h10v10H924z"/><path class="st3" d="M914 165h10v10H914z"/><path class="st3" d="M914 155h10v10H914z"/><path class="st0" d="M914 145h10v10H914z"/><path class="st0" d="M914 135h10v10H914z"/><path class="st1" d="M914 125h10v10H914z"/><path class="st1" d="M914 115h10v10H914z"/><path class="st1" d="M914 105h10v10H914z"/><path class="st2" d="M914 95h10v10H914z"/><path class="st2" d="M914 85h10v10H914z"/><path class="st1" d="M914 75h10v10H914z"/><path class="st2" d="M914 65h10v10H914z"/><path class="st2" d="M914 55h10v10H914z"/><path class="st3" d="M904 165h10v10H904z"/><path class="st3" d="M904 155h10v10H904z"/><path class="st3" d="M904 145h10v10H904z"/><path class="st0" d="M904 135h10v10H904z"/><path class="st0" d="M904 125h10v10H904z"/><path class="st1" d="M904 115h10v10H904z"/><path class="st1" d="M904 105h10v10H904z"/><path class="st1" d="M904 95h10v10H904z"/><path class="st2" d="M904 85h10v10H904z"/><path class="st2" d="M904 75h10v10H904z"/><path class="st2" d="M904 65h10v10H904z"/><path class="st3" d="M894 165h10v10H894z"/><path class="st3" d="M894 155h10v10H894z"/><path class="st3" d="M894 145h10v10H894z"/><path class="st3" d="M894 135h10v10H894z"/><path class="st0" d="M894 125h10v10H894z"/><path class="st0" d="M894 115h10v10H894z"/><path class="st1" d="M894 105h10v10H894z"/><path class="st1" d="M894 95h10v10H894z"/><path class="st2" d="M894 85h10v10H894z"/><path class="st2" d="M894 75h10v10H894z"/><path class="st3" d="M884 165h10v10H884z"/><path class="st3" d="M884 155h10v10H884z"/><path class="st3" d="M884 145h10v10H884z"/><path class="st3" d="M884 135h10v10H884z"/><path class="st0" d="M884 125h10v10H884z"/><path class="st0" d="M884 115h10v10H884z"/><path class="st1" d="M884 105h10v10H884z"/><path class="st1" d="M884 95h10v10H884z"/><path class="st2" d="M884 85h10v10H884z"/><path class="st2" d="M884 75h10v10H884z"/><path class="st2" d="M884 65h10v10H884z"/><path class="st3" d="M874 165h10v10H874z"/><path class="st3" d="M874 155h10v10H874z"/><path class="st3" d="M874 145h10v10H874z"/><path class="st3" d="M874 135h10v10H874z"/><path class="st0" d="M874 125h10v10H874z"/><path class="st0" d="M874 115h10v10H874z"/><path class="st1" d="M874 105h10v10H874z"/><path class="st1" d="M874 95h10v10H874z"/><path class="st2" d="M874 85h10v10H874z"/><path class="st1" d="M874 75h10v10H874z"/><path class="st2" d="M874 65h10v10H874z"/><path class="st2" d="M874 55h10v10H874z"/><path class="st3" d="M864 165h10v10H864z"/><path class="st3" d="M864 155h10v10H864z"/><path class="st3" d="M864 145h10v10H864z"/><path class="st3" d="M864 135h10v10H864z"/><path class="st0" d="M864 125h10v10H864z"/><path class="st0" d="M864 115h10v10H864z"/><path class="st1" d="M864 105h10v10H864z"/><path class="st1" d="M864 95h10v10H864z"/><path class="st2" d="M864 85h10v10H864z"/><path class="st1" d="M864 75h10v10H864z"/><path class="st1" d="M864 65h10v10H864z"/><path class="st2" d="M864 55h10v10H864z"/><path class="st3" d="M854 165h10v10H854z"/><path class="st3" d="M854 155h10v10H854z"/><path class="st3" d="M854 145h10v10H854z"/><path class="st3" d="M854 135h10v10H854z"/><path class="st0" d="M854 125h10v10H854z"/><path class="st0" d="M854 115h10v10H854z"/><path class="st1" d="M854 105h10v10H854z"/><path class="st2" d="M854 95h10v10H854z"/><path class="st1" d="M854 85h10v10H854z"/><path class="st1" d="M854 75h10v10H854z"/><path class="st1" d="M854 65h10v10H854z"/><path class="st2" d="M854 55h10v10H854z"/><path class="st3" d="M844 165h10v10H844z"/><path class="st3" d="M844 155h10v10H844z"/><path class="st3" d="M844 145h10v10H844z"/><path class="st3" d="M844 135h10v10H844z"/><path class="st0" d="M844 125h10v10H844z"/><path class="st0" d="M844 115h10v10H844z"/><path class="st1" d="M844 105h10v10H844z"/><path class="st0" d="M844 95h10v10H844z"/><path class="st1" d="M844 85h10v10H844z"/><path class="st1" d="M844 75h10v10H844z"/><path class="st1" d="M844 65h10v10H844z"/><path class="st2" d="M844 55h10v10H844z"/><path class="st3" d="M834 165h10v10H834z"/><path class="st3" d="M834 155h10v10H834z"/><path class="st3" d="M834 145h10v10H834z"/><path class="st0" d="M834 135h10v10H834z"/><path class="st0" d="M834 125h10v10H834z"/><path class="st1" d="M834 115h10v10H834z"/><path class="st0" d="M834 105h10v10H834z"/><path class="st0" d="M834 95h10v10H834z"/><path class="st0" d="M834 85h10v10H834z"/><path class="st1" d="M834 75h10v10H834z"/><path class="st1" d="M834 65h10v10H834z"/><path class="st2" d="M834 55h10v10H834z"/><path class="st3" d="M824 155h10v10H824z"/><path class="st0" d="M824 145h10v10H824z"/><path class="st0" d="M824 135h10v10H824z"/><path class="st1" d="M824 125h10v10H824z"/><path class="st0" d="M824 115h10v10H824z"/><path class="st0" d="M824 105h10v10H824z"/><path class="st0" d="M824 95h10v10H824z"/><path class="st1" d="M824 85h10v10H824z"/><path class="st1" d="M824 75h10v10H824z"/><path class="st2" d="M824 65h10v10H824z"/><path class="st0" d="M814 155h10v10H814z"/><path class="st1" d="M814 145h10v10H814z"/><path class="st2" d="M814 135h10v10H814z"/><path class="st2" d="M814 125h10v10H814z"/><path class="st0" d="M814 115h10v10H814z"/><path class="st0" d="M814 105h10v10H814z"/><path class="st1" d="M814 95h10v10H814z"/><path class="st1" d="M814 85h10v10H814z"/><path class="st1" d="M814 75h10v10H814z"/><path class="st2" d="M814 65h10v10H814z"/><path class="st0" d="M804 155h10v10H804z"/><path class="st1" d="M804 145h10v10H804z"/><path class="st1" d="M804 135h10v10H804z"/><path class="st2" d="M804 125h10v10H804z"/><path class="st2" d="M804 115h10v10H804z"/><path class="st0" d="M804 105h10v10H804z"/><path class="st1" d="M804 95h10v10H804z"/><path class="st2" d="M804 85h10v10H804z"/><path class="st2" d="M804 75h10v10H804z"/><path class="st3" d="M794 155h10v10H794z"/><path class="st0" d="M794 145h10v10H794z"/><path class="st1" d="M794 135h10v10H794z"/><path class="st1" d="M794 125h10v10H794z"/><path class="st2" d="M794 115h10v10H794z"/><path class="st2" d="M794 105h10v10H794z"/><path class="st2" d="M794 95h10v10H794z"/><path class="st3" d="M784 155h10v10H784z"/><path class="st0" d="M784 145h10v10H784z"/><path class="st0" d="M784 135h10v10H784z"/><path class="st1" d="M784 125h10v10H784z"/><path class="st1" d="M784 115h10v10H784z"/><path class="st2" d="M784 105h10v10H784z"/><path class="st3" d="M774 155h10v10H774z"/><path class="st3" d="M774 145h10v10H774z"/><path class="st0" d="M774 135h10v10H774z"/><path class="st1" d="M774 125h10v10H774z"/><path class="st1" d="M774 115h10v10H774z"/><path class="st2" d="M774 105h10v10H774z"/><path class="st3" d="M764 155h10v10H764z"/><path class="st3" d="M764 145h10v10H764z"/><path class="st0" d="M764 135h10v10H764z"/><path class="st1" d="M764 125h10v10H764z"/><path class="st2" d="M764 115h10v10H764z"/><path class="st2" d="M764 105h10v10H764z"/><path class="st3" d="M754 145h10v10H754z"/><path class="st0" d="M754 135h10v10H754z"/><path class="st1" d="M754 125h10v10H754z"/><path class="st2" d="M754 115h10v10H754z"/><path class="st1" d="M744 135h10v10H744z"/><path class="st2" d="M744 125h10v10H744z"/></g></g></svg>